<svg width="17" height="17" viewBox="0 0 17 17" fill="none" xmlns="http://www.w3.org/2000/svg">
<path fill-rule="evenodd" clip-rule="evenodd" d="M13.4583 4.25H14.875C16.0486 4.25 17 5.2014 17 6.375V12.0417C17 13.2153 16.0486 14.1667 14.875 14.1667H13.5876L14.1401 16.0969C14.2013 16.3107 14.1584 16.5409 14.0244 16.7184C13.8904 16.896 13.6808 17.0002 13.4583 17H3.54167C3.31923 17.0002 3.1096 16.896 2.97558 16.7184C2.84157 16.5409 2.79873 16.3107 2.8599 16.0969L3.4124 14.1667H2.125C0.951395 14.1667 0 13.2153 0 12.0417V6.375C0 5.2014 0.951395 4.25 2.125 4.25H3.54167V1.41667C3.54167 0.634263 4.17593 0 4.95833 0H12.0417C12.8241 0 13.4583 0.634263 13.4583 1.41667V4.25ZM12.0413 1.41699H4.95801V4.25033H12.0413V1.41699ZM4.48047 15.5837L5.48984 12.042H11.5107L12.5201 15.5837H4.48047ZM14.8753 12.7503C15.2665 12.7503 15.5837 12.4332 15.5837 12.042V6.37533C15.5837 5.98412 15.2665 5.66699 14.8753 5.66699H2.12533C1.73412 5.66699 1.41699 5.98412 1.41699 6.37533V12.042C1.41699 12.4332 1.73412 12.7503 2.12533 12.7503H3.81647L4.27689 11.1389C4.36391 10.8346 4.6422 10.625 4.95866 10.6253H12.042C12.3584 10.625 12.6367 10.8346 12.7238 11.1389L13.1842 12.7503H14.8753Z" fill="black"/>
<ellipse cx="3.54134" cy="7.79134" rx="0.708333" ry="0.708333" fill="black"/>
</svg>
