<svg width="13" height="14" viewBox="0 0 13 14" fill="none" xmlns="http://www.w3.org/2000/svg">
<path fill-rule="evenodd" clip-rule="evenodd" d="M6.37575 9.50766C8.07114 9.50766 9.45267 7.85228 9.45267 5.81535C9.45267 3.77843 8.07114 2.12305 6.37575 2.12305C4.68037 2.12305 3.29883 3.77843 3.29883 5.81535C3.29883 7.85228 4.68344 9.50766 6.37575 9.50766ZM6.37575 3.04612C7.56652 3.04612 8.5296 4.27689 8.5296 5.81535C8.5296 7.35382 7.56652 8.58459 6.37575 8.58459C5.18498 8.58459 4.22191 7.35382 4.22191 5.81535C4.22191 4.27689 5.18498 3.04612 6.37575 3.04612Z" fill="#343F4F"/>
<path fill-rule="evenodd" clip-rule="evenodd" d="M9.19095 9.20009C8.93605 9.1746 8.70875 9.36057 8.68326 9.61548C8.65777 9.87038 8.84374 10.0977 9.09864 10.1232C10.53 10.2914 11.639 11.4546 11.7386 12.8924H1.01249C1.12156 11.4588 2.22571 10.3006 3.65249 10.1232C3.90739 10.0977 4.09336 9.87038 4.06787 9.61548C4.04238 9.36057 3.81508 9.1746 3.56018 9.20009C3.52633 9.20009 0.0678711 9.59394 0.0678711 13.3509C0.0678711 13.6058 0.274509 13.8124 0.52941 13.8124H12.2217C12.4766 13.8124 12.6833 13.6058 12.6833 13.3509C12.6833 9.59394 9.22479 9.20009 9.19095 9.20009Z" fill="#343F4F"/>
</svg>
