<svg width="17" height="14" viewBox="0 0 17 14" fill="none" xmlns="http://www.w3.org/2000/svg">
<path d="M15.6068 7.19727H1.22727C1.10182 7.19727 1 7.08527 1 6.94727C1 6.80927 1.10182 6.69727 1.22727 6.69727H15.6068C15.7323 6.69727 15.8341 6.80927 15.8341 6.94727C15.8341 7.08527 15.7323 7.19727 15.6068 7.19727Z" fill="#1E1E1E" stroke="#1E1E1E"/>
<path d="M5.96286 12.8501C5.91414 12.8501 5.86541 12.8278 5.8281 12.7837L1.05558 7.08466C1.02018 7.04193 1 6.9842 1 6.92375C1 6.8633 1.02018 6.80557 1.05558 6.76284L5.82848 1.06648C5.90272 0.977841 6.02339 0.977841 6.09762 1.06648C6.17185 1.15511 6.17185 1.2992 6.09762 1.38784L1.45947 6.92375L6.09762 12.4619C6.17185 12.5506 6.17185 12.6947 6.09762 12.7833C6.06032 12.8278 6.01159 12.8501 5.96286 12.8501Z" fill="#1E1E1E" stroke="#1E1E1E"/>
</svg>
