<svg width="18" height="18" viewBox="0 0 18 18" fill="none" xmlns="http://www.w3.org/2000/svg">
<path fill-rule="evenodd" clip-rule="evenodd" d="M9 18C13.969 18 18 13.969 18 9C18 4.03104 13.969 3.52405e-07 9 7.86805e-07C4.03104 1.22121e-06 -1.22121e-06 4.03104 -7.86805e-07 9C-3.52405e-07 13.969 4.03104 18 9 18ZM9.91796 12.6918C9.91796 13.2106 9.49889 13.6098 9 13.6098C8.50111 13.6098 8.08204 13.1907 8.08204 12.6918C8.08204 12.1729 8.48115 11.7738 9 11.7738C9.51885 11.7738 9.91796 12.1929 9.91796 12.6918ZM9.89801 10.2286C9.89801 10.6571 9.4989 11 9.00001 11C8.50111 11 8.102 10.6571 8.102 10.2286L8.102 5.77143C8.102 5.34286 8.50111 5 9 5C9.4989 5 9.89801 5.34286 9.89801 5.77143L9.89801 10.2286ZM16.5432 9C16.5432 4.82927 13.1707 1.45676 9 1.45676C4.82927 1.45676 1.45676 4.84922 1.45676 9C1.45676 13.1508 4.82927 16.5233 9 16.5233C13.1707 16.5233 16.5432 13.1707 16.5432 9Z" fill="#F1A95C"/>
</svg>
